<?xml version="1.0" encoding="iso-8859-1"?>
<!-- Uploaded to: SVG Repo, www.svgrepo.com, Generator: SVG Repo Mixer Tools -->
<svg fill="currentColor" version="1.1" id="Layer_1" xmlns="http://www.w3.org/2000/svg" xmlns:xlink="http://www.w3.org/1999/xlink" 
	 viewBox="0 0 512 512" xml:space="preserve">
<g>
	<g>
		<path d="M463.082,48.942c-65.224-65.224-170.777-65.223-235.998,0c-52.8,52.791-112.042,178.557-94.809,260.012l-31.589,31.58
			C75.4,325.568,41.797,328.624,19.572,350.85c-26.089,26.078-26.102,68.316,0,94.407c8.312,8.317,18.676,14.195,30.04,17.161
			c2.966,11.353,8.832,21.718,17.155,30.035c26.036,26.036,68.375,26.026,94.402,0c21.947-21.951,25.38-55.517,10.311-81.103
			l31.598-31.602c81.443,17.214,207.201-42.001,260.005-94.806C528.309,219.715,528.304,114.164,463.082,48.942z M137.571,398.056
			c-6.518,6.513-6.518,17.079,0,23.598c13.004,13.015,13.004,34.186,0,47.201c-13.004,13.004-34.18,13.027-47.207,0
			c-7.323-7.328-9.235-15.927-9.539-21.849c-0.445-8.534-7.257-15.357-15.797-15.802c-5.921-0.309-14.526-2.216-21.859-9.544
			c-13.03-13.041-13.067-34.129,0-47.207c12.603-12.603,34.593-12.603,47.195,0c6.528,6.528,17.096,6.502,23.598,0l31.802-31.794
			c3.049,4.685,6.516,9.079,10.517,13.08c4.002,4.003,8.397,7.472,13.086,10.523L137.571,398.056z M238.881,296.741
			c-6.517,6.517-17.083,6.517-23.6,0c-6.517-6.517-6.517-17.083,0-23.6c6.517-6.517,17.083-6.517,23.6,0
			C245.397,279.659,245.397,290.225,238.881,296.741z M286.081,155.14c-6.517,6.517-17.083,6.517-23.6,0
			c-6.517-6.517-6.517-17.083,0-23.6s17.084-6.517,23.6,0C292.598,138.058,292.598,148.623,286.081,155.14z M380.482,249.541
			c-6.517,6.517-17.083,6.517-23.6,0c-6.517-6.517-6.517-17.083,0-23.6c6.517-6.517,17.084-6.517,23.6,0
			C386.999,232.459,386.999,243.024,380.482,249.541z M404.082,131.54c-6.517,6.517-17.083,6.517-23.6,0s-6.517-17.083,0-23.6
			s17.083-6.517,23.6,0S410.599,125.023,404.082,131.54z"/>
	</g>
</g>
</svg>