<?xml version="1.0" encoding="iso-8859-1"?>
<!-- Uploaded to: SVG Repo, www.svgrepo.com, Generator: SVG Repo Mixer Tools -->
<svg color="currentColor" fill="currentColor" height="800px" width="800px" version="1.1" id="Layer_1" xmlns="http://www.w3.org/2000/svg" xmlns:xlink="http://www.w3.org/1999/xlink" 
	 viewBox="0 0 512.001 512.001" xml:space="preserve">
<g>
	<g>
		<circle cx="217.535" cy="174.007" r="8.696"/>
	</g>
</g>
<g>
	<g>
		<path d="M284.527,228.877c-2.785-3.911-8.219-4.824-12.128-2.034c-4.829,3.441-9.725,5.215-14.551,5.272
			c-0.08,0.001-0.161,0.001-0.242,0.001c-5.622,0-11.372-2.32-17.092-6.899c-3.75-3.001-9.224-2.393-12.224,1.357
			c-3.002,3.749-2.394,9.221,1.355,12.222c8.885,7.109,18.284,10.711,27.948,10.711c0.154,0,0.308-0.001,0.461-0.002
			c8.441-0.1,16.664-2.959,24.438-8.5C286.403,238.218,287.314,232.788,284.527,228.877z"/>
	</g>
</g>
<g>
	<g>
		<path d="M391.176,306.822c-0.073-0.021-0.145-0.038-0.218-0.057l-67.611-16.645l0.46-33.307c0.871-1.148,1.733-2.311,2.578-3.508
			c16.457-23.311,26.103-53.549,27.581-85.917l5.124-0.015v103.588c0,4.803,3.892,8.696,8.696,8.696s8.696-3.894,8.696-8.696
			V160.918c0.19-0.718,0.3-1.461,0.3-2.219v-38.218C376.783,54.048,322.735,0,256.3,0c-0.05,0-0.1,0.002-0.15,0.002S256.05,0,256,0
			c-66.434,0-120.482,54.048-120.482,120.482v184.627l-11.8,3.281C57.892,325.002,11.925,384,11.925,451.901v37.49
			c0,2.273,0.889,4.455,2.478,6.079c7.372,7.541,17.84,16.531,25.834,16.531c6.666,0,11.638-5.087,16.026-9.574
			c0.994-1.017,2.434-2.489,3.589-3.511c1.156,1.022,2.596,2.494,3.591,3.511c4.386,4.487,9.359,9.574,16.024,9.574
			c6.666,0,11.639-5.087,16.026-9.574c0.994-1.017,2.435-2.489,3.59-3.511c1.155,1.022,2.594,2.494,3.589,3.511
			c4.388,4.487,9.359,9.574,16.026,9.574s11.639-5.087,16.027-9.575c0.994-1.016,2.434-2.488,3.589-3.51
			c1.155,1.022,2.595,2.494,3.59,3.511c4.386,4.487,9.36,9.574,16.026,9.574c6.666,0,11.638-5.087,16.026-9.574
			c0.994-1.017,2.434-2.489,3.589-3.511c1.156,1.022,2.596,2.494,3.591,3.511c4.386,4.487,9.359,9.574,16.024,9.574
			c6.666,0,11.639-5.087,16.026-9.574c0.994-1.017,2.435-2.489,3.59-3.511c1.155,1.022,2.594,2.494,3.589,3.511
			c4.388,4.487,9.359,9.574,16.026,9.574c6.666,0,11.639-5.087,16.027-9.575c0.994-1.016,2.434-2.488,3.589-3.51
			c1.155,1.022,2.595,2.494,3.59,3.511c4.386,4.487,9.36,9.574,16.026,9.574c6.666,0,11.638-5.087,16.026-9.574
			c0.994-1.017,2.434-2.489,3.589-3.511c1.156,1.022,2.596,2.494,3.591,3.511c4.386,4.487,9.359,9.574,16.024,9.574
			c6.666,0,11.639-5.087,16.026-9.574c0.994-1.017,2.435-2.489,3.59-3.511c1.155,1.022,2.594,2.494,3.589,3.511
			c4.388,4.487,9.36,9.574,16.026,9.574s11.639-5.087,16.027-9.575c0.994-1.016,2.434-2.488,3.589-3.51
			c1.155,1.022,2.595,2.494,3.59,3.511c4.386,4.487,9.359,9.574,16.026,9.574s11.638-5.087,16.026-9.574
			c0.994-1.017,2.434-2.489,3.589-3.511c1.156,1.022,2.596,2.494,3.591,3.511c4.386,4.487,9.359,9.574,16.024,9.574
			c6.666,0,11.639-5.087,16.026-9.574c0.994-1.017,2.435-2.489,3.59-3.511c1.155,1.022,2.594,2.494,3.589,3.511
			c4.388,4.487,9.36,9.574,16.026,9.574c7.995,0,18.462-8.99,25.834-16.531c1.589-1.624,2.478-3.807,2.478-6.079v-39.819
			C500.076,383.09,455.295,324.39,391.176,306.822z M256.199,17.396c56.753,0.108,102.892,46.309,102.892,103.087v29.5
			l-71.877,0.206c-7.783-4.088-41.268-24.244-51.575-72.919c-0.71-3.357-3.329-5.982-6.683-6.701
			c-0.608-0.131-1.22-0.194-1.825-0.194c-2.738,0-5.362,1.296-7.02,3.565c-17.426,23.841-41.388,38.615-66.779,41.485
			C155.978,60.957,201.097,17.449,256.199,17.396z M152.911,132.946c25.989-2.297,50.672-14.835,70.262-35.54
			c16.493,48.128,53.146,66.899,57.968,69.19c-0.304,0.187-0.603,0.387-0.889,0.616c-3.751,3-4.36,8.472-1.36,12.224
			c3,3.751,8.473,4.36,12.224,1.36c3.751-3,4.36-8.472,1.36-12.223c-0.294-0.368-0.618-0.697-0.957-1.004l45.054-0.13
			c-1.595,31.548-11.714,59.683-26.992,79.505c-0.899,0.749-1.638,1.678-2.173,2.731c-13.978,16.888-31.896,27.049-51.408,27.049
			c-19.168,0-36.795-9.811-50.662-26.169c-0.409-0.656-0.904-1.251-1.469-1.775c-17.52-21.676-28.664-54.033-28.664-90.127
			c0-4.803-3.892-8.696-8.696-8.696s-8.696,3.894-8.696,8.696c0,35.641,9.874,69.256,27.804,94.654
			c1.178,1.67,2.383,3.29,3.612,4.863l-0.397,32.111l-35.92,9.989V132.946z M306.157,275.31l-0.245,17.629
			c-3.264,2.681-9.616,7.362-18.451,11.485c-9.391,4.305-21.728,7.991-36.556,8.128c-24.26-0.221-39.594-13.599-44.722-18.903
			l0.22-17.88c14.841,11.967,31.818,18.347,49.597,18.347C274.003,294.116,291.185,287.572,306.157,275.31z M482.688,485.74h-0.005
			c-3.885,3.665-8.098,7.028-10.514,8.388c-1.206-1.009-2.878-2.72-3.992-3.86c-4.388-4.487-9.36-9.574-16.026-9.574
			s-11.639,5.087-16.026,9.574c-0.994,1.017-2.435,2.489-3.59,3.511c-1.155-1.022-2.594-2.494-3.589-3.51
			c-4.388-4.488-9.361-9.575-16.027-9.575c-6.666,0-11.638,5.087-16.026,9.574c-0.994,1.017-2.434,2.489-3.589,3.511
			c-1.155-1.022-2.595-2.494-3.59-3.511c-4.386-4.487-9.359-9.574-16.026-9.574c-6.665,0-11.638,5.087-16.024,9.574
			c-0.994,1.017-2.435,2.489-3.591,3.511c-1.155-1.022-2.594-2.494-3.589-3.511c-4.388-4.487-9.359-9.574-16.026-9.574
			c-6.666,0-11.639,5.087-16.026,9.574c-0.994,1.017-2.435,2.489-3.59,3.511c-1.155-1.022-2.594-2.494-3.589-3.51
			c-4.388-4.488-9.361-9.575-16.027-9.575c-6.666,0-11.638,5.087-16.026,9.574c-0.994,1.017-2.434,2.489-3.589,3.511
			c-1.155-1.022-2.595-2.494-3.59-3.511c-4.386-4.487-9.359-9.574-16.025-9.574c-6.665,0-11.638,5.087-16.024,9.574
			c-0.994,1.017-2.435,2.489-3.591,3.511c-1.155-1.022-2.594-2.494-3.589-3.511c-4.388-4.487-9.359-9.574-16.026-9.574
			c-6.666,0-11.639,5.087-16.026,9.574c-0.994,1.017-2.435,2.489-3.59,3.511c-1.155-1.022-2.594-2.494-3.589-3.51
			c-4.388-4.488-9.361-9.575-16.027-9.575s-11.638,5.087-16.026,9.574c-0.994,1.017-2.434,2.489-3.589,3.511
			c-1.155-1.022-2.595-2.494-3.59-3.511c-4.386-4.487-9.36-9.574-16.026-9.574c-6.665,0-11.638,5.087-16.024,9.574
			c-0.994,1.017-2.435,2.489-3.591,3.511c-1.155-1.022-2.594-2.494-3.589-3.511c-4.388-4.487-9.359-9.574-16.026-9.574
			c-6.666,0-11.639,5.087-16.025,9.574c-0.994,1.017-2.435,2.489-3.59,3.511c-1.155-1.022-2.594-2.494-3.589-3.51
			c-4.388-4.488-9.361-9.575-16.027-9.575c-6.666,0-11.638,5.087-16.026,9.574c-1.114,1.14-2.786,2.851-3.992,3.86
			c-2.418-1.361-6.63-4.723-10.514-8.388v-33.841c0-59.953,40.607-112.042,98.75-126.669c0.07-0.019,0.139-0.036,0.209-0.056
			l66.335-18.448c7.829,7.88,26.757,23.232,55.448,23.232c0.231,0,0.453-0.012,0.683-0.013c0.256,0.002,0.508,0.013,0.766,0.013
			c16.895,0,31.246-4.212,42.432-9.304c0.416-0.187,0.819-0.376,1.226-0.565c0.11-0.052,0.224-0.103,0.334-0.157
			c10.111-4.732,17.364-10.063,21.449-13.477l69.743,17.17c56.528,15.537,95.994,67.312,95.994,125.945V485.74z"/>
	</g>
</g>
</svg>