<svg xmlns="http://www.w3.org/2000/svg" height="800px" width="800px" version="1.1" id="Layer_1" viewBox="0 0 512 512" xml:space="preserve"><circle cx="256" cy="256" r="256"  fill="#935635"/><path d="M323.319,503.036c88.514-24.064,157.961-94.411,180.719-183.456L341.333,156.875l-2.329,2.412  l-59.732-59.732l-36.488,52.436l-72.118,51.429l90.727,90.727l-28.667,118.296L323.319,503.036z"  fill="#804000"/><polygon points="341.333,156.875 279.273,156.875 279.273,99.556 232.727,99.556 232.727,156.875   170.667,156.875 170.667,203.421 232.727,203.421 232.727,412.444 279.273,412.444 279.273,203.421 341.333,203.421 "  fill="#FFD15D"/><polygon points="279.273,156.875 279.273,99.556 256,99.556 256,412.444 279.273,412.444 279.273,203.421   341.333,203.421 341.333,156.875 "  fill="#F9B54C"/></svg>
